<mxfile host="app.diagrams.net" modified="2022-03-13T19:28:20.317Z" agent="5.0 (X11; Linux x86_64) AppleWebKit/537.36 (KHTML, like Gecko) Chrome/99.0.4844.51 Safari/537.36" etag="lOWnKaoKsAndcn7PCeFS" version="17.1.2" type="github">
  <diagram id="udgjtJTQzLGw1hZeFpxR" name="Page-1">
    <mxGraphModel dx="1102" dy="593" grid="1" gridSize="10" guides="1" tooltips="1" connect="1" arrows="1" fold="1" page="1" pageScale="1" pageWidth="850" pageHeight="1100" math="0" shadow="0">
      <root>
        <mxCell id="0" />
        <mxCell id="1" parent="0" />
        <mxCell id="XlNlDJNXLvtF8VT1fbpx-11" style="edgeStyle=orthogonalEdgeStyle;rounded=0;orthogonalLoop=1;jettySize=auto;html=1;exitX=0.75;exitY=1;exitDx=0;exitDy=0;entryX=0.2;entryY=-0.017;entryDx=0;entryDy=0;entryPerimeter=0;" edge="1" parent="1" source="XlNlDJNXLvtF8VT1fbpx-1" target="XlNlDJNXLvtF8VT1fbpx-2">
          <mxGeometry relative="1" as="geometry" />
        </mxCell>
        <mxCell id="XlNlDJNXLvtF8VT1fbpx-1" value="Principal" style="rounded=1;whiteSpace=wrap;html=1;arcSize=50;fillColor=#f8cecc;strokeColor=#b85450;" vertex="1" parent="1">
          <mxGeometry x="40" y="40" width="120" height="40" as="geometry" />
        </mxCell>
        <mxCell id="XlNlDJNXLvtF8VT1fbpx-12" style="edgeStyle=orthogonalEdgeStyle;rounded=0;orthogonalLoop=1;jettySize=auto;html=1;exitX=0.25;exitY=1;exitDx=0;exitDy=0;entryX=0.5;entryY=0;entryDx=0;entryDy=0;" edge="1" parent="1" source="XlNlDJNXLvtF8VT1fbpx-2" target="XlNlDJNXLvtF8VT1fbpx-4">
          <mxGeometry relative="1" as="geometry" />
        </mxCell>
        <mxCell id="XlNlDJNXLvtF8VT1fbpx-2" value="Real nota1, nota2, nota3, nota4, media" style="shape=internalStorage;whiteSpace=wrap;html=1;backgroundOutline=1;fillColor=#fff2cc;strokeColor=#d6b656;" vertex="1" parent="1">
          <mxGeometry x="80" y="100" width="260" height="60" as="geometry" />
        </mxCell>
        <mxCell id="XlNlDJNXLvtF8VT1fbpx-13" style="edgeStyle=orthogonalEdgeStyle;rounded=0;orthogonalLoop=1;jettySize=auto;html=1;exitX=0.5;exitY=1;exitDx=0;exitDy=0;entryX=0.5;entryY=0;entryDx=0;entryDy=0;" edge="1" parent="1" source="XlNlDJNXLvtF8VT1fbpx-4" target="XlNlDJNXLvtF8VT1fbpx-5">
          <mxGeometry relative="1" as="geometry" />
        </mxCell>
        <mxCell id="XlNlDJNXLvtF8VT1fbpx-4" value="nota 1" style="shape=parallelogram;perimeter=parallelogramPerimeter;whiteSpace=wrap;html=1;fixedSize=1;fillColor=#dae8fc;strokeColor=#6c8ebf;" vertex="1" parent="1">
          <mxGeometry x="80" y="180" width="120" height="40" as="geometry" />
        </mxCell>
        <mxCell id="XlNlDJNXLvtF8VT1fbpx-14" style="edgeStyle=orthogonalEdgeStyle;rounded=0;orthogonalLoop=1;jettySize=auto;html=1;exitX=0.5;exitY=1;exitDx=0;exitDy=0;" edge="1" parent="1" source="XlNlDJNXLvtF8VT1fbpx-5" target="XlNlDJNXLvtF8VT1fbpx-6">
          <mxGeometry relative="1" as="geometry" />
        </mxCell>
        <mxCell id="XlNlDJNXLvtF8VT1fbpx-5" value="nota 2" style="shape=parallelogram;perimeter=parallelogramPerimeter;whiteSpace=wrap;html=1;fixedSize=1;fillColor=#dae8fc;strokeColor=#6c8ebf;" vertex="1" parent="1">
          <mxGeometry x="80" y="240" width="120" height="40" as="geometry" />
        </mxCell>
        <mxCell id="XlNlDJNXLvtF8VT1fbpx-15" style="edgeStyle=orthogonalEdgeStyle;rounded=0;orthogonalLoop=1;jettySize=auto;html=1;exitX=0.5;exitY=1;exitDx=0;exitDy=0;entryX=0.5;entryY=0;entryDx=0;entryDy=0;" edge="1" parent="1" source="XlNlDJNXLvtF8VT1fbpx-6" target="XlNlDJNXLvtF8VT1fbpx-7">
          <mxGeometry relative="1" as="geometry" />
        </mxCell>
        <mxCell id="XlNlDJNXLvtF8VT1fbpx-6" value="nota 3" style="shape=parallelogram;perimeter=parallelogramPerimeter;whiteSpace=wrap;html=1;fixedSize=1;fillColor=#dae8fc;strokeColor=#6c8ebf;" vertex="1" parent="1">
          <mxGeometry x="80" y="300" width="120" height="40" as="geometry" />
        </mxCell>
        <mxCell id="XlNlDJNXLvtF8VT1fbpx-18" style="edgeStyle=orthogonalEdgeStyle;rounded=0;orthogonalLoop=1;jettySize=auto;html=1;exitX=0.5;exitY=1;exitDx=0;exitDy=0;entryX=0.375;entryY=0.025;entryDx=0;entryDy=0;entryPerimeter=0;" edge="1" parent="1" source="XlNlDJNXLvtF8VT1fbpx-7" target="XlNlDJNXLvtF8VT1fbpx-8">
          <mxGeometry relative="1" as="geometry" />
        </mxCell>
        <mxCell id="XlNlDJNXLvtF8VT1fbpx-7" value="nota 4" style="shape=parallelogram;perimeter=parallelogramPerimeter;whiteSpace=wrap;html=1;fixedSize=1;fillColor=#dae8fc;strokeColor=#6c8ebf;" vertex="1" parent="1">
          <mxGeometry x="80" y="360" width="120" height="40" as="geometry" />
        </mxCell>
        <mxCell id="XlNlDJNXLvtF8VT1fbpx-17" style="edgeStyle=orthogonalEdgeStyle;rounded=0;orthogonalLoop=1;jettySize=auto;html=1;exitX=0.25;exitY=1;exitDx=0;exitDy=0;entryX=0.75;entryY=0;entryDx=0;entryDy=0;" edge="1" parent="1" source="XlNlDJNXLvtF8VT1fbpx-8" target="XlNlDJNXLvtF8VT1fbpx-10">
          <mxGeometry relative="1" as="geometry" />
        </mxCell>
        <mxCell id="XlNlDJNXLvtF8VT1fbpx-8" value="media = nota1+ nota2 + nota3 + nota4 / 4" style="rounded=0;whiteSpace=wrap;html=1;fillColor=#d5e8d4;strokeColor=#82b366;" vertex="1" parent="1">
          <mxGeometry x="80" y="420" width="160" height="40" as="geometry" />
        </mxCell>
        <mxCell id="XlNlDJNXLvtF8VT1fbpx-10" value="Principal" style="rounded=1;whiteSpace=wrap;html=1;arcSize=50;fillColor=#f8cecc;strokeColor=#b85450;" vertex="1" parent="1">
          <mxGeometry x="40" y="480" width="120" height="40" as="geometry" />
        </mxCell>
      </root>
    </mxGraphModel>
  </diagram>
</mxfile>
